<svg version="1.2" xmlns="http://www.w3.org/2000/svg" width="946" height="227">
    <style>
        .s0{fill:#1f283b}
    </style>
    <path fill-rule="evenodd" class="s0" d="M614.5 46.5q36-.3 72 .5 1.4.6 2.5 1.5 1.2 15.9-.5 31.5l-77 1q-5.7 6.1-3.5 14.5 1.2 2.7 3.5 4.5 28.5.2 57 2 22.7 5.2 25.5 28.5 1 15 0 30-2.7 14.6-13.5 24.5-3.9 3.2-9 4-68 1-136 0-.8-.8-1-2 5.7-15.6 12-31l108-1q5.2-1.2 6.5-6.5 1-5 0-10-1.8-3.7-5.5-5.5-30.1-.1-60-2-19.8-9.3-20.5-31.5-1-11.5 0-23 2.1-18 18.5-25.5 10.5-3.2 21-4.5z" id="Layer"/>
    <path fill-rule="evenodd" d="M306.5 48.5q93-6.6 78.5 86l-1.5 1.5q-52.5.8-105 .5 2.9 18.6 22 20.5l110 1q7 15.8 11 32.5-52.4 1.4-104.5 1-21.4-.4-41.5-7.5-28.9-14-30.5-46.5-5.6-34.2 13-63 19.3-22.3 48.5-26z" style="fill:#20283b"/>
    <path fill-rule="evenodd" class="s0" d="M385.5 47.5q16.5-.3 33 .5 17.6 44.3 33.5 89.5 2.3 8.9 6 1 16.1-44.7 33-89l2-2q8.2.6 17 0 7.8.3 15.5.5 1.4.6 2 2-25.2 67.5-51.5 134.5-4.9 5.1-11.5 7.5-20.7 5.9-32.5-11.5-23.7-64.6-48-129-.7-2.5 1.5-4z"/>
    <path fill-rule="evenodd" d="M541.5 51.5h33q-24.8 67.6-50.5 135-1.4 1.8-3.5 2.5-16.5.8-33 .5 24-66.8 49.5-133 1.1-3.7 4.5-5z" style="fill:#28a1ce"/>
    <path fill-rule="evenodd" d="M308.5 79.5q10.5-.2 21 .5 16.3 1.2 23.5 15.5 1 3.5 0 7-36.6 1.7-73.5.5-1.8-7.9 5-13 11.1-7.8 24-10.5z" style="fill:#f4f4f5"/>
</svg>
